<svg width="48" height="48" viewBox="0 0 48 48" fill="none" xmlns="http://www.w3.org/2000/svg">
<g clip-path="url(#clip0)">
<path d="M36 36C29.3829 42.6171 18.6171 42.6171 12 36C5.38291 29.3829 5.38291 18.617 12 12C18.6171 5.38288 29.3829 5.38288 36 12C42.6171 18.617 42.6171 29.3829 36 36ZM28.2501 17.75L24 22.0001L19.7499 17.75C19.1979 17.198 18.3021 17.198 17.7501 17.75C17.198 18.3021 17.198 19.1978 17.7501 19.7499L22.0001 24L17.7501 28.25C17.198 28.8021 17.198 29.6979 17.7501 30.2499C18.3021 30.802 19.1979 30.802 19.7499 30.2499L24 25.9998L28.2501 30.2499C28.8021 30.802 29.6979 30.802 30.2499 30.2499C30.802 29.6979 30.802 28.8021 30.2499 28.25L25.9999 24L30.2499 19.7499C30.802 19.1978 30.802 18.3021 30.2499 17.75C29.6979 17.198 28.8021 17.198 28.2501 17.75Z" fill="white"/>
</g>
<defs>
<clipPath id="clip0">
<rect width="33.9412" height="33.9412" fill="white" transform="matrix(0.707107 -0.707107 -0.707107 -0.707107 24 48)"/>
</clipPath>
</defs>
</svg>
