<svg width="29" height="29" viewBox="0 0 29 29" fill="none" xmlns="http://www.w3.org/2000/svg">
<path d="M24.1626 4.14439C18.6339 -1.38263 9.67142 -1.38131 4.14439 4.14743C-1.38263 9.67617 -1.38131 18.6386 4.14743 24.1656C9.67617 29.6926 18.6386 29.6913 24.1656 24.1626C26.82 21.5074 28.3108 17.9064 28.31 14.152C28.3092 10.3981 26.8174 6.79834 24.1626 4.14439ZM21.4373 19.7177C21.4366 19.7184 21.436 19.719 21.4354 19.7196V19.7149L20.7182 20.4274C19.7906 21.3666 18.4398 21.7531 17.1558 21.4465C15.8622 21.1003 14.6325 20.5491 13.5133 19.814C12.4734 19.1494 11.5098 18.3726 10.6398 17.4973C9.83934 16.7027 9.1202 15.8302 8.49296 14.8928C7.80689 13.8841 7.26385 12.7853 6.87929 11.6277C6.43844 10.2677 6.80376 8.77539 7.82298 7.77282L8.66282 6.93298C8.89632 6.69842 9.27574 6.69759 9.51024 6.9311C9.51085 6.9317 9.51151 6.93231 9.51212 6.93298L12.1638 9.58466C12.3984 9.81816 12.3992 10.1976 12.1657 10.4321C12.1651 10.4327 12.1645 10.4333 12.1638 10.434L10.6068 11.991C10.16 12.4329 10.1038 13.1351 10.4747 13.6424C11.0378 14.4153 11.661 15.1426 12.3384 15.8176C13.0937 16.5761 13.9147 17.2661 14.7919 17.8795C15.2988 18.2331 15.986 18.1735 16.4245 17.738L17.9296 16.2092C18.1631 15.9747 18.5425 15.9739 18.777 16.2074C18.7776 16.208 18.7782 16.2086 18.7789 16.2092L21.4353 18.8704C21.6699 19.1038 21.6708 19.4832 21.4373 19.7177Z" fill="white"/>
</svg>
