<svg width="44" height="44" viewBox="0 0 44 44" fill="none" xmlns="http://www.w3.org/2000/svg">
<path d="M22.1542 43.6916C34.2193 43.6916 44 33.9109 44 21.8458C44 9.78069 34.2193 0 22.1542 0C10.0891 0 0.308411 9.78069 0.308411 21.8458C0.308411 33.9109 10.0891 43.6916 22.1542 43.6916Z" fill="white"/>
<path fill-rule="evenodd" clip-rule="evenodd" d="M21.329 31.4268H23.0437C23.0437 31.4268 23.5616 31.37 23.826 31.0849C24.0694 30.8232 24.0616 30.3318 24.0616 30.3318C24.0616 30.3318 24.0281 28.0311 25.0959 27.6923C26.1485 27.3585 27.5002 29.9159 28.9329 30.8992C30.0163 31.6433 30.8395 31.4802 30.8395 31.4802L34.6702 31.4268C34.6702 31.4268 36.6742 31.3034 35.724 29.7278C35.6461 29.5989 35.1706 28.5622 32.8758 26.4321C30.4738 24.2027 30.7955 24.5633 33.6889 20.7068C35.451 18.3582 36.1555 16.9244 35.9355 16.3102C35.7256 15.7253 34.4296 15.8799 34.4296 15.8799L30.1163 15.9068C30.1163 15.9068 29.7966 15.8632 29.5595 16.0049C29.3278 16.144 29.1786 16.468 29.1786 16.468C29.1786 16.468 28.496 18.2854 27.5855 19.831C25.6649 23.0924 24.8969 23.2645 24.583 23.062C23.8529 22.5901 24.0351 21.1659 24.0351 20.1542C24.0351 16.9937 24.5145 15.6759 23.1017 15.3347C22.6328 15.2214 22.2878 15.1467 21.0888 15.1346C19.5498 15.1186 18.2471 15.1393 17.5096 15.5006C17.0189 15.7409 16.6404 16.2764 16.8709 16.3071C17.156 16.3453 17.8016 16.4812 18.144 16.9473C18.5859 17.5486 18.5704 18.8991 18.5704 18.8991C18.5704 18.8991 18.8243 22.6197 17.9773 23.0819C17.3959 23.3989 16.5983 22.7517 14.886 19.7928C14.0087 18.2772 13.3463 16.6019 13.3463 16.6019C13.3463 16.6019 13.2185 16.2888 12.9907 16.1214C12.7142 15.9185 12.3279 15.8538 12.3279 15.8538L8.22927 15.8807C8.22927 15.8807 7.61398 15.8978 7.38812 16.1654C7.18718 16.4033 7.37215 16.8955 7.37215 16.8955C7.37215 16.8955 10.581 24.4028 14.2143 28.1861C17.5458 31.6546 21.329 31.4268 21.329 31.4268Z" fill="#303030"/>
</svg>
