<svg width="20" height="20" viewBox="0 0 20 20" fill="none" xmlns="http://www.w3.org/2000/svg">
<path d="M17.0696 2.9275C13.1638 -0.977148 6.83215 -0.976211 2.9275 2.92965C-0.977148 6.83551 -0.976211 13.1671 2.92965 17.0718C6.83551 20.9764 13.1671 20.9755 17.0718 17.0696C18.947 15.1938 20.0002 12.6499 19.9996 9.9975C19.9991 7.34555 18.9452 4.80242 17.0696 2.9275ZM15.1443 13.9295C15.1439 13.93 15.1434 13.9304 15.143 13.9309V13.9275L14.6363 14.4309C13.981 15.0944 13.0267 15.3674 12.1196 15.1509C11.2057 14.9062 10.337 14.5169 9.54629 13.9975C8.81168 13.528 8.1309 12.9792 7.51629 12.3609C6.95078 11.7995 6.44273 11.1831 5.99961 10.5209C5.51492 9.80828 5.13129 9.03203 4.85961 8.21418C4.54816 7.2534 4.80625 6.19914 5.52629 5.49086L6.11961 4.89754C6.28457 4.73184 6.55262 4.73125 6.71828 4.89621C6.71871 4.89664 6.71918 4.89707 6.71961 4.89754L8.59293 6.77086C8.75863 6.93582 8.75922 7.20387 8.59426 7.36953C8.59383 7.36996 8.5934 7.37039 8.59293 7.37086L7.49293 8.47086C7.17731 8.78305 7.13762 9.27914 7.39961 9.63754C7.79746 10.1836 8.23773 10.6973 8.71629 11.1742C9.24984 11.7101 9.82988 12.1975 10.4496 12.6309C10.8077 12.8807 11.2932 12.8386 11.6029 12.5309L12.6663 11.4509C12.8312 11.2852 13.0993 11.2846 13.2649 11.4496C13.2654 11.45 13.2658 11.4504 13.2662 11.4509L15.1429 13.3309C15.3087 13.4958 15.3093 13.7638 15.1443 13.9295Z" fill="#C2B7B7"/>
</svg>
