<svg width="38" height="38" viewBox="0 0 38 38" fill="none" xmlns="http://www.w3.org/2000/svg">
<path d="M19 0C8.52298 0 0 8.52298 0 19C0 29.477 8.52298 38 19 38C29.477 38 38 29.477 38 19C38 8.52298 29.477 0 19 0ZM27.3125 20.5832H20.5832V27.3125C20.5832 28.1866 19.8741 28.8957 19 28.8957C18.1259 28.8957 17.4168 28.1866 17.4168 27.3125V20.5832H10.6875C9.8134 20.5832 9.10426 19.8741 9.10426 19C9.10426 18.1259 9.8134 17.4168 10.6875 17.4168H17.4168V10.6875C17.4168 9.8134 18.1259 9.10426 19 9.10426C19.8741 9.10426 20.5832 9.8134 20.5832 10.6875V17.4168H27.3125C28.1866 17.4168 28.8957 18.1259 28.8957 19C28.8957 19.8741 28.1866 20.5832 27.3125 20.5832Z" fill="#FF6589"/>
</svg>
