<svg width="33" height="28" viewBox="0 0 33 28" fill="none" xmlns="http://www.w3.org/2000/svg">
<path d="M0.00689086 20.2843C0.00689086 24.5454 3.46097 27.9995 7.72197 27.9995C11.983 27.9995 15.4371 24.5454 15.4371 20.2843C15.4371 16.0233 11.983 12.5693 7.72197 12.5693C6.84627 12.5693 6.00801 12.7219 5.22328 12.9909C6.95951 3.03324 14.7246 -3.38836 7.52638 1.89674C-0.455362 7.75733 -0.00165756 20.0486 0.00727363 20.2738C0.00727363 20.2773 0.00689086 20.2805 0.00689086 20.2843Z" fill="#FF6589"/>
<path d="M16.9801 20.2843C16.9801 24.5454 20.4341 27.9995 24.6952 27.9995C28.9563 27.9995 32.4104 24.5454 32.4104 20.2843C32.4104 16.0233 28.9562 12.5693 24.6952 12.5693C23.8194 12.5693 22.9812 12.7219 22.1965 12.9909C23.9327 3.03324 31.6978 -3.38836 24.4996 1.89674C16.5178 7.75733 16.9715 20.0486 16.9804 20.2738C16.9804 20.2773 16.9801 20.2805 16.9801 20.2843Z" fill="#FF6589"/>
</svg>
