<svg width="77" height="77" viewBox="0 0 77 77" fill="none" xmlns="http://www.w3.org/2000/svg">
<g clip-path="url(#clip0)">
<path d="M75.477 23.0972C72.1147 14.5418 61.7575 9.41125 52.9852 12.8065C42.9719 16.682 46.2919 32.6089 37.1967 35.8295C32.2836 37.5692 25.0208 31.0705 20.0568 30.0739C10.9099 28.2376 2.62943 34.6916 0.590433 43.6292C-1.48977 52.7474 1.84665 64.926 11.8648 67.4008C23.7983 70.3488 30.0144 59.6213 40.0253 56.541C50.2984 53.3799 61.7211 60.8454 70.2258 51.7622C76.5091 45.0517 78.8063 31.5691 75.477 23.0972V23.0972Z" fill="url(#paint0_linear)"/>
<path opacity="0.1" d="M71.7134 26.859C71.7134 20.919 66.898 16.1035 60.9579 16.1035C56.356 16.1035 52.4309 18.9948 50.8953 23.0591H12.0031C10.3418 23.0591 8.99524 24.4057 8.99524 26.0669V59.3649C8.99524 61.0261 10.3418 62.3727 12.0031 62.3727H64.997C66.6582 62.3727 68.0048 61.0261 68.0048 59.3649V34.9805C70.2755 33.0085 71.7134 30.1026 71.7134 26.859V26.859Z" fill="#2626BC"/>
<path d="M64.9969 58.6129H12.0031C10.3418 58.6129 8.99524 57.2663 8.99524 55.6051V22.3071C8.99524 20.6459 10.3418 19.2993 12.0031 19.2993H64.9969C66.6582 19.2993 68.0048 20.6459 68.0048 22.3071V55.6051C68.0048 57.2663 66.6582 58.6129 64.9969 58.6129Z" fill="white"/>
<path d="M39.4163 33.6443L68.0049 55.6051C68.0049 57.2663 66.6583 58.6129 64.9971 58.6129H12.0031C10.3418 58.6129 8.99524 57.2663 8.99524 55.6051L37.5839 33.6443C38.1243 33.2292 38.8759 33.2292 39.4163 33.6443V33.6443Z" fill="white"/>
<path d="M37.5839 44.2681L8.99524 22.3071C8.99524 20.6459 10.3418 19.2993 12.0031 19.2993H64.9969C66.6582 19.2993 68.0048 20.6459 68.0048 22.3071L39.4163 44.2681C38.8759 44.683 38.1243 44.683 37.5839 44.2681Z" fill="white"/>
<path d="M55.787 54.611H50.9543C50.539 54.611 50.2024 54.2745 50.2024 53.8591V50.5273C50.2024 50.1121 50.539 49.7754 50.9543 49.7754H55.787C56.2024 49.7754 56.539 50.1121 56.539 50.5273V53.8591C56.539 54.2745 56.2024 54.611 55.787 54.611Z" fill="#6583FE"/>
<path d="M46.9025 51.5459H42.7167C42.3013 51.5459 41.9647 51.2092 41.9647 50.7939C41.9647 50.3787 42.3013 50.042 42.7167 50.042H46.9025C47.3179 50.042 47.6544 50.3787 47.6544 50.7939C47.6544 51.2092 47.3179 51.5459 46.9025 51.5459Z" fill="#2626BC"/>
<path d="M46.9025 54.6113H32.1893C31.774 54.6113 31.4374 54.2746 31.4374 53.8594C31.4374 53.4441 31.774 53.1074 32.1893 53.1074H46.9025C47.3179 53.1074 47.6544 53.4441 47.6544 53.8594C47.6544 54.2748 47.3179 54.6113 46.9025 54.6113Z" fill="#2626BC"/>
<path d="M71.5604 24.8217C72.5108 18.9588 68.5284 13.4356 62.6656 12.4852C56.8027 11.5347 51.2794 15.5171 50.329 21.3799C49.3786 27.2428 53.3609 32.7661 59.2238 33.7165C65.0867 34.6669 70.6099 30.6846 71.5604 24.8217Z" fill="#FF6589"/>
<path d="M60.9579 34.6067C67.303 34.6067 72.4653 29.4445 72.4653 23.0992C72.4653 16.754 67.3032 11.5918 60.9579 11.5918C54.6126 11.5918 49.4505 16.754 49.4505 23.0992C49.4505 26.7904 51.1994 30.0789 53.91 32.186L38.9582 43.6716C38.6888 43.8789 38.3119 43.879 38.042 43.6716L9.77426 21.9573C9.94285 20.879 10.8783 20.0513 12.0031 20.0513H46.4976C46.9129 20.0513 47.2495 19.7145 47.2495 19.2993C47.2495 18.8841 46.9129 18.5474 46.4976 18.5474H12.0031C9.92992 18.5474 8.24329 20.234 8.24329 22.3071V55.6051C8.24329 57.6783 9.92992 59.3649 12.0031 59.3649H64.997C67.0701 59.3649 68.7567 57.6783 68.7567 55.6051V35.7325C68.7567 35.3173 68.4201 34.9805 68.0048 34.9805C67.5894 34.9805 67.2528 35.3173 67.2528 35.7325V54.0793L47.5656 38.9561L55.2265 33.0713C56.9154 34.0459 58.8718 34.6067 60.9579 34.6067V34.6067ZM29.4345 38.9561L9.74719 54.0793V23.833L29.4345 38.9561ZM67.2232 55.953C67.055 57.0319 66.1223 57.861 64.997 57.861H12.0031C10.8777 57.861 9.94496 57.0319 9.77682 55.953L30.6689 39.9043L37.1258 44.8642C37.5304 45.1749 38.0152 45.3304 38.5001 45.3304C38.9849 45.3304 39.4696 45.1751 39.8743 44.8642L46.3312 39.9042L67.2232 55.953ZM50.9544 23.0992C50.9544 17.5834 55.4419 13.0957 60.9579 13.0957C66.4739 13.0957 70.9614 17.5832 70.9614 23.0992C70.9614 28.6151 66.4739 33.1028 60.9579 33.1028C55.4419 33.1028 50.9544 28.6151 50.9544 23.0992Z" fill="#4A6FF2"/>
<path d="M56.2634 19.4312L57.7982 23.099L56.2634 26.7669C56.0027 27.3898 56.6315 28.0139 57.2525 27.7487L66.5194 23.7905C67.1282 23.5305 67.1282 22.6676 66.5194 22.4075L57.2525 18.4494C56.6315 18.1841 56.0027 18.8082 56.2634 19.4312V19.4312Z" fill="white"/>
<path d="M49.7535 12.2825C49.195 12.2825 48.6366 12.07 48.2116 11.6449C47.3613 10.7946 47.3613 9.41112 48.2116 8.56096C49.0614 7.71095 50.4452 7.71065 51.2953 8.56096C52.1457 9.41127 52.1457 10.7947 51.2953 11.6449C50.8703 12.07 50.3119 12.2825 49.7535 12.2825ZM49.7535 9.42646C49.5803 9.42646 49.4069 9.49233 49.2748 9.62437C49.0111 9.88816 49.0111 10.3175 49.2748 10.5815C49.5389 10.8452 49.9679 10.8454 50.2319 10.5815C50.4957 10.3177 50.4957 9.88831 50.2319 9.62437C50.1 9.49248 49.9266 9.42646 49.7535 9.42646V9.42646Z" fill="#6583FE"/>
<path d="M32.8661 69.0765C32.3077 69.0765 31.7491 68.8638 31.3241 68.4388C30.4738 67.5885 30.4738 66.2051 31.3241 65.3549C32.1741 64.5047 33.558 64.5047 34.408 65.3549C35.2583 66.2052 35.2583 67.5887 34.408 68.4388C33.983 68.864 33.4245 69.0765 32.8661 69.0765V69.0765ZM32.8661 66.2204C32.6928 66.2204 32.5194 66.2863 32.3874 66.4183C32.1236 66.6821 32.1236 67.1115 32.3874 67.3754C32.6515 67.6393 33.0805 67.6393 33.3446 67.3754C33.6084 67.1116 33.6084 66.6823 33.3446 66.4183C33.2127 66.2864 33.0393 66.2204 32.8661 66.2204V66.2204Z" fill="#6583FE"/>
<path d="M44.3322 14.2191C44.1399 14.2191 43.9472 14.1457 43.8006 13.9989L42.9035 13.102L42.0064 13.9989C41.713 14.2925 41.2366 14.2925 40.9432 13.9989C40.6495 13.7052 40.6495 13.2291 40.9432 12.9355L42.3719 11.5068C42.6653 11.2132 43.1417 11.2132 43.4352 11.5068L44.8639 12.9355C45.1576 13.2292 45.1576 13.7054 44.8639 13.9989C44.7172 14.1455 44.5247 14.2191 44.3322 14.2191Z" fill="#6583FE"/>
<path d="M66.1338 66.2205C65.9414 66.2205 65.7487 66.1472 65.6021 66.0004L64.705 65.1035L63.808 66.0004C63.5145 66.2939 63.0381 66.2939 62.7447 66.0004C62.451 65.7067 62.451 65.2305 62.7447 64.937L64.1734 63.5083C64.4668 63.2147 64.9433 63.2147 65.2367 63.5083L66.6654 64.937C66.9591 65.2307 66.9591 65.7068 66.6654 66.0004C66.5188 66.147 66.3261 66.2205 66.1338 66.2205Z" fill="#6583FE"/>
<path d="M26.9025 66.9349C26.7102 66.9349 26.5175 66.8615 26.3709 66.7147L25.4738 65.8178L24.5768 66.7147C24.2833 67.0083 23.8069 67.0083 23.5135 66.7147C23.2198 66.421 23.2198 65.9449 23.5135 65.6513L24.9422 64.2226C25.2356 63.9291 25.7121 63.9291 26.0055 64.2226L27.4342 65.6513C27.7279 65.945 27.7279 66.4212 27.4342 66.7147C27.2874 66.8614 27.0949 66.9349 26.9025 66.9349Z" fill="#FF6589"/>
</g>
<defs>
<linearGradient id="paint0_linear" x1="65.019" y1="75.5929" x2="29.8276" y2="28.972" gradientUnits="userSpaceOnUse">
<stop stop-color="#FF6589"/>
<stop offset="1" stop-color="#FC5ED0"/>
</linearGradient>
<clipPath id="clip0">
<rect width="77" height="77" fill="white"/>
</clipPath>
</defs>
</svg>
