<svg width="44" height="44" viewBox="0 0 44 44" fill="none" xmlns="http://www.w3.org/2000/svg">
<path d="M28.3562 11.6235H15.3344C13.2559 11.6235 11.5649 13.3145 11.5649 15.393V28.4148C11.5649 30.4933 13.2559 32.1848 15.3344 32.1848H28.3562C30.4347 32.1848 32.1262 30.4938 32.1262 28.4148V15.393C32.1262 13.3145 30.4352 11.6235 28.3562 11.6235ZM21.8453 28.6728C18.1133 28.6728 15.0769 25.6364 15.0769 21.9039C15.0769 18.1719 18.1133 15.1355 21.8453 15.1355C25.5778 15.1355 28.6142 18.1719 28.6142 21.9039C28.6142 25.6359 25.5773 28.6728 21.8453 28.6728ZM28.8318 16.5349C27.9483 16.5349 27.2298 15.8165 27.2298 14.9335C27.2298 14.0505 27.9483 13.3321 28.8318 13.3321C29.7148 13.3321 30.4332 14.0505 30.4332 14.9335C30.4332 15.8165 29.7148 16.5349 28.8318 16.5349Z" fill="#FF6589"/>
<path d="M21.8453 17.9961C19.6909 17.9961 17.9366 19.7494 17.9366 21.9038C17.9366 24.0592 19.6909 25.813 21.8453 25.813C24.0007 25.813 25.7535 24.0592 25.7535 21.9038C25.7535 19.7499 24.0002 17.9961 21.8453 17.9961Z" fill="#FF6589"/>
<path d="M21.8453 0C9.78096 0 0 9.78096 0 21.8453C0 33.9097 9.78096 43.6906 21.8453 43.6906C33.9097 43.6906 43.6906 33.9097 43.6906 21.8453C43.6906 9.78096 33.9097 0 21.8453 0ZM34.9859 28.4151C34.9859 32.0712 32.0123 35.0448 28.3562 35.0448H15.3344C11.6788 35.0448 8.70473 32.0712 8.70473 28.4151V15.3933C8.70473 11.7377 11.6788 8.76363 15.3344 8.76363H28.3562C32.0123 8.76363 34.9859 11.7377 34.9859 15.3933V28.4151Z" fill="#FF6589"/>
</svg>
