<svg width="29" height="29" viewBox="0 0 29 29" fill="none" xmlns="http://www.w3.org/2000/svg">
<path d="M24.8526 4.83439C19.3239 -0.692631 10.3614 -0.691304 4.83439 4.83743C-0.692632 10.3662 -0.691305 19.3286 4.83744 24.8556C10.3662 30.3826 19.3286 30.3813 24.8556 24.8526C27.51 22.1974 29.0008 18.5964 29 14.842C28.9992 11.0881 27.5074 7.48834 24.8526 4.83439ZM22.1273 20.4077C22.1266 20.4084 22.126 20.409 22.1254 20.4096V20.4049L21.4082 21.1174C20.4806 22.0566 19.1298 22.4431 17.8458 22.1365C16.5522 21.7903 15.3225 21.2391 14.2033 20.504C13.1634 19.8394 12.1998 19.0626 11.3298 18.1873C10.5293 17.3927 9.81021 16.5202 9.18296 15.5828C8.49689 14.5741 7.95386 13.4753 7.56929 12.3177C7.12844 10.9577 7.49376 9.46539 8.51298 8.46282L9.35282 7.62298C9.58632 7.38843 9.96574 7.3876 10.2002 7.6211C10.2008 7.62171 10.2015 7.62231 10.2021 7.62298L12.8538 10.2747C13.0884 10.5082 13.0892 10.8876 12.8557 11.1221C12.8551 11.1227 12.8545 11.1233 12.8538 11.124L11.2968 12.681C10.85 13.1229 10.7938 13.8251 11.1647 14.3324C11.7278 15.1053 12.351 15.8326 13.0284 16.5076C13.7837 17.2661 14.6047 17.9561 15.4819 18.5695C15.9888 18.9231 16.676 18.8635 17.1145 18.428L18.6196 16.8992C18.8531 16.6647 19.2325 16.6639 19.467 16.8974C19.4676 16.898 19.4682 16.8986 19.4689 16.8992L22.1253 19.5604C22.3599 19.7938 22.3608 20.1732 22.1273 20.4077Z" fill="#FF6589"/>
</svg>
