<svg width="195" height="242" viewBox="0 0 195 242" fill="none" xmlns="http://www.w3.org/2000/svg">
<path d="M74.5876 105.258C73.8593 105.258 73.1699 104.818 72.8795 104.096C72.1351 102.231 70.6843 102.152 69.8796 102.274C68.8791 102.42 67.9377 101.724 67.7886 100.707C67.6392 99.6919 68.3342 98.7458 69.3402 98.5952C71.6434 98.2501 74.8582 99.1181 76.2939 102.701C76.6749 103.655 76.2193 104.737 75.277 105.122C75.0506 105.214 74.8168 105.258 74.5876 105.258Z" fill="#BEB96E"/>
<path d="M64.9239 145.556C62.0572 151.752 63.7563 160.59 64.6687 164.262C64.7578 164.621 64.9842 164.883 65.2539 165.078C70.6516 158.506 74.9049 148.533 73.8289 143.931C73.4739 142.412 73.5063 141.35 73.7636 140.521C70.1562 140.136 66.5457 142.05 64.9239 145.556Z" fill="#BEB96E"/>
<g filter="url(#filter0_d)">
<path d="M24 35C24 26.1635 31.1634 19 40 19H180.695V222.822H40C31.1635 222.822 24 215.658 24 206.822V35Z" fill="#B5FDB8"/>
</g>
<path d="M164 121L183.5 96.7513V145.249L164 121Z" fill="white"/>
<path d="M99.1562 143.96C98.4773 143.96 97.8238 143.58 97.5037 142.923C95.8766 139.594 96.5113 136.18 99.1219 134.224C99.9381 133.612 101.093 133.786 101.697 134.609C102.303 135.433 102.133 136.597 101.316 137.209C99.6191 138.482 100.497 140.643 100.805 141.277C101.255 142.198 100.881 143.313 99.9698 143.767C99.707 143.898 99.4293 143.96 99.1562 143.96Z" fill="#BEB96E"/>
<path d="M98.8757 70.5167C97.8705 70.5167 97.0488 69.6995 97.0355 68.6806C97.0302 68.2193 96.9321 67.5911 96.4998 67.206C96.1843 66.9264 95.7275 66.8118 95.2132 66.8646C94.2109 66.988 93.2902 66.2508 93.1733 65.2303C93.0564 64.2116 93.7801 63.289 94.7905 63.1709C96.3592 62.9894 97.8245 63.4289 98.9313 64.4129C100.061 65.4171 100.695 66.9153 100.718 68.6332C100.73 69.6593 99.9167 70.5037 98.8998 70.5165C98.8918 70.5167 98.8837 70.5167 98.8757 70.5167Z" fill="#BEB96E"/>
<path d="M81.8169 96.2685C80.5608 92.3991 82.7493 88.2248 86.6842 87.1341C90.4476 86.0908 94.4228 88.553 95.4461 92.3568C96.789 97.3483 94.8943 103.616 93.8128 106.549C93.4828 107.444 92.4181 107.781 91.6279 107.257C88.9351 105.471 83.4601 101.33 81.8169 96.2685Z" fill="#D2D26E"/>
<path d="M91.6279 107.257C92.0135 107.513 92.4639 107.558 92.8631 107.438C92.0826 105.835 91.3467 103.352 90.4375 99.3014C89.183 93.7108 86.7475 90.1361 84.7959 88.0095C82.1071 89.7175 80.7826 93.0823 81.8169 96.2687C83.4601 101.33 88.9351 105.471 91.6279 107.257Z" fill="#BEB96E"/>
<path d="M64.924 145.556C67.1461 140.752 73.1014 138.915 77.6674 141.923C81.349 144.348 82.6286 149.012 80.7679 153.033C77.901 159.23 70.0968 163.584 66.723 165.233C65.8861 165.642 64.8952 165.173 64.669 164.262C63.7564 160.589 62.0573 151.752 64.924 145.556Z" fill="#D2D26E"/>
<path d="M116.516 136.106C112.987 132.675 112.044 127.881 114.41 125.398C116.776 122.915 121.555 123.685 125.085 127.116C129.597 131.503 132.239 138.39 133.402 142.058C133.756 143.175 132.735 144.246 131.617 143.931C127.942 142.897 121.029 140.493 116.516 136.106Z" fill="#D2D26E"/>
<path d="M131.616 143.93C132.043 144.051 132.455 143.967 132.782 143.758C129.017 139.512 120.902 130.679 114.249 125.625C112.125 128.16 113.084 132.769 116.517 136.106C121.029 140.493 127.942 142.896 131.616 143.93Z" fill="#BEB96E"/>
<path d="M112.184 181.586C111.214 181.586 110.403 180.82 110.348 179.828C110.334 179.58 108.763 154.637 91.2484 134.751C68.7037 109.151 69.6872 90.9245 72.2798 82.3388C75.0837 73.0537 82.0797 66.3273 91.4751 63.8868C109.621 59.1707 122.035 68.1262 127.652 78.0441C130.521 83.1081 127.893 84.3092 126.11 84.8902C126.11 84.8902 125.879 82.3332 124.452 79.8817C119.406 71.2175 108.528 63.3002 92.3921 67.4896C84.2697 69.5997 78.2222 75.4071 75.8021 83.4227C73.4343 91.264 72.6503 108.036 93.9994 132.278C112.397 153.168 113.967 178.555 114.024 179.625C114.08 180.651 113.303 181.526 112.288 181.583C112.254 181.584 112.218 181.586 112.184 181.586Z" fill="#A5A050"/>
<path d="M72.2548 154.042C71.9411 154.042 71.6229 153.962 71.3325 153.791C70.4523 153.276 70.1539 152.137 70.6645 151.249C72.6549 147.788 72.1459 144.941 71.558 141.643C71.0626 138.871 70.551 136.006 71.674 132.842C72.8956 129.399 75.4416 127.124 78.8417 126.434C83.7448 125.441 89.9739 127.834 93.9824 132.26C94.6693 133.017 94.617 134.193 93.8664 134.887C93.114 135.577 91.9517 135.526 91.2657 134.769C88.1841 131.368 83.1498 129.354 79.5672 130.08C77.4212 130.516 75.9326 131.867 75.1406 134.099C74.3504 136.325 74.7351 138.484 75.182 140.983C75.8086 144.493 76.5187 148.472 73.8487 153.116C73.507 153.71 72.8894 154.042 72.2548 154.042Z" fill="#A5A050"/>
<path d="M89.0173 97.2876C88.2083 97.2876 87.4666 96.7447 87.2427 95.9201C85.6317 89.9836 81.8308 86.933 78.9802 86.6097C77.1301 86.3991 75.618 87.3016 74.6049 89.2155C74.1249 90.1198 73.0091 90.4631 72.1137 89.9783C71.2165 89.4953 70.8785 88.3674 71.3576 87.4612C73.0898 84.1889 76.0161 82.529 79.3909 82.9141C84.4144 83.4842 88.9975 88.3149 90.7938 94.9358C91.0625 95.9273 90.4854 96.9496 89.5047 97.222C89.3418 97.2657 89.1782 97.2876 89.0173 97.2876Z" fill="#A5A050"/>
<path d="M120.165 132.928C119.624 132.928 119.089 132.688 118.725 132.227C114.719 127.153 108.437 122.724 108.374 122.678C107.539 122.094 107.332 120.935 107.912 120.091C108.489 119.248 109.638 119.035 110.474 119.624C110.749 119.816 117.266 124.413 121.604 129.909C122.237 130.712 122.107 131.882 121.312 132.523C120.974 132.795 120.568 132.928 120.165 132.928Z" fill="#A5A050"/>
<path d="M140.38 116.014L150.521 121.261C151.556 121.796 152.873 121.057 152.968 119.887L153.908 108.417L142.463 103.712L140.38 116.014Z" fill="#D29B82"/>
<path d="M126.992 77.762C114.487 79.1567 114.473 90.5015 115.037 94.1072C115.152 94.8427 115.9 95.2901 116.583 95.0098C120.083 93.5726 128.093 88.2393 128.795 80.745L126.992 77.762Z" fill="#BEB96E"/>
<path d="M145.419 94.0893C146.295 103.159 143.421 115.625 142.106 120.696C141.815 121.82 140.503 122.289 139.576 121.602C135.386 118.499 125.451 110.687 121.616 103.719C118.249 97.6033 118.7 90.3877 122.177 84.873C125.421 79.7284 131.785 77.1059 137.342 79.4943C142.63 81.7675 144.784 87.5069 145.419 94.0893Z" fill="#C38264"/>
<path d="M132.809 101.17C139.975 106.708 151.976 110.821 156.935 112.369C158.033 112.712 159.12 111.835 159.032 110.677C158.633 105.444 157.306 92.7991 153.47 85.8307C150.104 79.7153 143.797 76.2942 137.324 76.3667C131.286 76.4344 125.722 80.5106 124.798 86.5379C123.919 92.2748 127.609 97.1512 132.809 101.17Z" fill="#D28C73"/>
<path d="M127.167 79.9949C130.571 80.7237 138.34 81.5411 147.38 76.9096C148.319 76.4283 148.296 75.0541 147.328 74.6359C143.016 72.7757 133.279 69.9003 126.504 77.948C125.898 78.6673 126.253 79.7992 127.167 79.9949Z" fill="#D2D26E"/>
<path d="M106.089 125.024L158.96 74.9356C159.665 74.2679 159.665 73.1856 158.96 72.5178C158.255 71.8503 157.113 71.8503 156.408 72.5178L103.537 122.606L50.6663 72.5178C49.9493 71.8619 48.8068 71.8807 48.1142 72.5599C47.4387 73.2225 47.4387 74.2731 48.1142 74.9356L100.985 125.024L48.1142 175.112C47.3972 175.768 47.3773 176.85 48.07 177.53C48.7626 178.209 49.9051 178.228 50.6221 177.572C50.6372 177.558 50.6519 177.544 50.6663 177.53L103.537 127.442L156.408 177.53C157.125 178.186 158.267 178.167 158.96 177.488C159.636 176.825 159.636 175.775 158.96 175.112L106.089 125.024Z" fill="#FF6F6F"/>
<defs>
<filter id="filter0_d" x="0" y="0" width="194.695" height="241.822" filterUnits="userSpaceOnUse" color-interpolation-filters="sRGB">
<feFlood flood-opacity="0" result="BackgroundImageFix"/>
<feColorMatrix in="SourceAlpha" type="matrix" values="0 0 0 0 0 0 0 0 0 0 0 0 0 0 0 0 0 0 127 0"/>
<feOffset dx="-5"/>
<feGaussianBlur stdDeviation="9.5"/>
<feColorMatrix type="matrix" values="0 0 0 0 0 0 0 0 0 0 0 0 0 0 0 0 0 0 0.1 0"/>
<feBlend mode="normal" in2="BackgroundImageFix" result="effect1_dropShadow"/>
<feBlend mode="normal" in="SourceGraphic" in2="effect1_dropShadow" result="shape"/>
</filter>
</defs>
</svg>
