<svg width="198" height="242" viewBox="0 0 198 242" fill="none" xmlns="http://www.w3.org/2000/svg">
<g filter="url(#filter0_d)">
<path d="M24 35C24 26.1634 31.1634 19 40 19H184V223H40C31.1634 223 24 215.837 24 207V35Z" fill="#D1DBFF"/>
</g>
<path d="M165 121L184.5 96.7513V145.249L165 121Z" fill="white"/>
<path d="M104.4 69C86.2752 69 71.5826 83.4856 71.5826 101.355V115.946C71.5826 141.481 87.6654 154.534 87.6654 154.534H137.217V101.355C137.217 83.4856 122.524 69 104.4 69Z" fill="#FFD164"/>
<path d="M71.5826 101.355V115.946C71.5826 141.481 87.6654 154.534 87.6654 154.534H104.4V69C86.2752 69 71.5826 83.4856 71.5826 101.355Z" fill="#FFC350"/>
<path d="M141.072 161.472L121.134 154.534C118.047 153.46 115.982 150.583 115.982 147.356V135.613H92.8167V147.356C92.8167 150.583 90.7522 153.46 87.6651 154.534L67.7274 161.472C63.0966 163.084 60 167.399 60 172.24V181.29C60 184.443 62.5929 187 65.7912 187H143.008C146.206 187 148.799 184.443 148.799 181.29V172.24C148.799 167.399 145.702 163.084 141.072 161.472Z" fill="#F7D291"/>
<path d="M141.072 161.472L124.48 155.699C121.625 163.938 113.723 169.871 104.4 169.871C95.0758 169.871 87.1747 163.938 84.3195 155.699L67.7276 161.472C63.0968 163.083 60.0002 167.399 60.0002 172.24V181.29C60.0002 184.443 62.5931 187 65.7914 187H143.008C146.206 187 148.799 184.443 148.799 181.29V172.24C148.799 167.399 145.702 163.083 141.072 161.472Z" fill="#A5CDFF"/>
<path d="M104.4 177.484C117.086 177.484 127.84 169.427 131.755 158.231L124.48 155.699C121.625 163.938 113.723 169.871 104.4 169.871C95.0758 169.871 87.1747 163.938 84.3195 155.699L77.0444 158.231C80.959 169.427 91.7129 177.484 104.4 177.484Z" fill="#EDEBED"/>
<path d="M74.0031 173.76L63.0706 164.521C62.1856 165.471 61.4827 166.566 60.9654 167.755L71.4918 176.65C72.7757 177.736 73.5127 179.315 73.5127 180.985V187H77.3735V180.985C77.3737 178.203 76.1446 175.569 74.0031 173.76Z" fill="#8CB4EB"/>
<path d="M92.8171 142.694C95.9579 144.073 99.3837 144.929 103.005 145.097C103.472 145.118 103.937 145.129 104.4 145.129C108.518 145.129 112.432 144.264 115.982 142.729V135.613H92.8171V142.694Z" fill="#F0C382"/>
<path d="M130.185 108.968C127.671 108.968 125.634 106.959 125.634 104.481V101.355C125.634 96.0991 121.313 91.8386 115.982 91.8386H92.8169C87.4863 91.8386 83.165 96.0991 83.165 101.355V104.481C83.165 106.959 81.1275 108.968 78.6141 108.968C76.0897 108.968 73.7893 110.758 73.5378 113.235C73.2484 116.083 75.5093 118.484 78.3387 118.484H79.4014C80.3902 131.256 91.1911 141.322 104.399 141.322C117.608 141.322 128.408 131.256 129.397 118.484H130.46C133.29 118.484 135.55 116.083 135.261 113.235C135.01 110.758 132.709 108.968 130.185 108.968Z" fill="#FFE1A0"/>
<path d="M92.82 98.3636C94.7119 98.0972 96.6465 98.6149 98.0925 99.8462C107.656 107.99 120.039 112.774 133.356 112.774C133.931 112.774 134.534 112.759 135.157 112.735C134.661 110.508 132.499 108.943 130.129 108.968C127.636 108.994 125.634 106.939 125.634 104.481V101.355C125.634 96.0991 121.313 91.8386 115.982 91.8386H92.817C90.6365 91.8386 88.6416 92.5722 87.0258 93.7746V93.7849C84.6943 95.522 83.165 98.2516 83.165 101.355V104.675C83.165 107.144 81.0654 108.943 78.5623 108.968C76.0584 108.992 73.7879 110.775 73.538 113.235C73.2489 116.083 75.5093 118.484 78.339 118.484H79.4017C80.3905 131.256 91.1914 141.322 104.4 141.322C105.72 141.322 107.008 141.195 108.273 141.001C96.2446 139.171 87.0258 128.951 87.0258 116.58V104.95C87.0258 101.639 89.4952 98.832 92.82 98.3636Z" fill="#F7D291"/>
<path d="M92.8172 114.677C91.7501 114.677 90.8868 113.825 90.8868 112.774V110.871C90.8868 109.82 91.7504 108.968 92.8172 108.968C93.8841 108.968 94.7476 109.82 94.7476 110.871V112.774C94.7476 113.825 93.8841 114.677 92.8172 114.677Z" fill="#6E5A64"/>
<path d="M115.982 114.677C114.915 114.677 114.052 113.825 114.052 112.774V110.871C114.052 109.82 114.915 108.968 115.982 108.968C117.049 108.968 117.912 109.82 117.912 110.871V112.774C117.912 113.825 117.049 114.677 115.982 114.677Z" fill="#6E5A64"/>
<path d="M104.4 128C101.504 128 98.8308 127.083 97.2529 125.548C96.4931 124.81 96.4857 123.605 97.2339 122.857C97.9824 122.108 99.2078 122.101 99.9636 122.838C100.606 123.464 102.154 124.193 104.399 124.193C106.645 124.193 108.192 123.464 108.835 122.838C109.591 122.1 110.817 122.108 111.565 122.857C112.313 123.605 112.306 124.81 111.546 125.548C109.969 127.083 107.295 128 104.4 128Z" fill="#E3AA75"/>
<path d="M134.796 173.76L145.728 164.521C146.613 165.471 147.316 166.566 147.834 167.755L137.307 176.65C136.023 177.736 135.286 179.315 135.286 180.985V187H131.426V180.985C131.425 178.203 132.654 175.569 134.796 173.76Z" fill="#8CB4EB"/>
<path d="M88.9562 107.066C88.1474 107.066 87.3954 106.561 87.1256 105.764C86.788 104.766 87.3348 103.688 88.3454 103.356L94.1365 101.452C95.1564 101.117 96.2404 101.659 96.5779 102.656C96.9155 103.653 96.3687 104.731 95.3582 105.064L89.567 106.967C89.3634 107.034 89.1579 107.066 88.9562 107.066Z" fill="#E3AA75"/>
<path d="M104.4 69C97.4179 69 90.9577 71.1657 85.6382 74.8302C92.1903 94.6444 111.072 108.968 133.356 108.968C134.656 108.968 135.941 108.903 137.217 108.807V101.355C137.217 83.4856 122.524 69 104.4 69Z" fill="#FFE17D"/>
<path d="M115.982 141.323V148.935C115.982 165.741 129.495 171.774 129.495 187H137.216V141.323H115.982Z" fill="#FFD164"/>
<defs>
<filter id="filter0_d" x="0" y="0" width="198" height="242" filterUnits="userSpaceOnUse" color-interpolation-filters="sRGB">
<feFlood flood-opacity="0" result="BackgroundImageFix"/>
<feColorMatrix in="SourceAlpha" type="matrix" values="0 0 0 0 0 0 0 0 0 0 0 0 0 0 0 0 0 0 127 0"/>
<feOffset dx="-5"/>
<feGaussianBlur stdDeviation="9.5"/>
<feColorMatrix type="matrix" values="0 0 0 0 0 0 0 0 0 0 0 0 0 0 0 0 0 0 0.1 0"/>
<feBlend mode="normal" in2="BackgroundImageFix" result="effect1_dropShadow"/>
<feBlend mode="normal" in="SourceGraphic" in2="effect1_dropShadow" result="shape"/>
</filter>
</defs>
</svg>
