<svg width="198" height="242" viewBox="0 0 198 242" fill="none" xmlns="http://www.w3.org/2000/svg">
<g filter="url(#filter0_d)">
<path d="M24 35C24 26.1634 31.1634 19 40 19H184V223H40C31.1634 223 24 215.837 24 207V35Z" fill="#D1DBFF"/>
</g>
<path d="M165 121L184.5 96.7513V145.249L165 121Z" fill="white"/>
<path d="M149.029 105.75L143.501 100.743L132.239 105.134L130.706 111.549L124.817 138.655L143.942 147.107L146.315 143.999C149.589 137.185 151.426 129.529 151.426 121.437C151.426 115.968 150.583 110.698 149.029 105.75Z" fill="#FE7D43"/>
<path d="M129.338 135.366L122.626 138.655L105.37 150.986L113.061 168.393L118.551 169.773V169.776C130.821 165.147 140.695 155.699 146.383 143.855L129.338 135.366Z" fill="#EE6161"/>
<path d="M111.979 151.483L108.318 148.879L86.4374 145.508L75.925 162.642L80.7638 168.825V168.827C86.9191 171.513 93.7015 173 100.826 173C107.061 173 113.032 171.862 118.552 169.776V169.773L111.979 151.483Z" fill="#C2A1D5"/>
<path d="M87.4456 145.07L75.284 125.689L54.0643 132.349V141.675C59.1859 153.841 68.7869 163.603 80.7636 168.827V168.825L88.4535 150.986L87.4456 145.07Z" fill="#8AC9FE"/>
<path d="M58.9851 96.8601L53.2232 103.338H53.221C51.1386 108.97 50 115.069 50 121.437C50 128.622 51.4489 135.461 54.0643 141.675H54.0664L71.7682 134.154L74.0827 128.761L75.4723 102.231L58.9851 96.8601Z" fill="#75CDD5"/>
<path d="M88.9341 75.0054H78.6961C67.0062 80.7505 57.814 90.9032 53.221 103.338H53.2232L71.1476 110.29L82.8674 104.271L98.3665 90.127L88.9341 75.0054Z" fill="#6CF5C2"/>
<path d="M130.933 111.549L129.994 107.314L118.423 110.29L117.8 115.707C118.393 117.507 118.712 119.435 118.712 121.437C118.712 124.208 118.1 126.831 117.006 129.178L117.257 133.5L124.817 137.581L129.338 135.366C131.341 131.154 132.465 126.429 132.465 121.437C132.465 117.987 131.926 114.665 130.933 111.549Z" fill="#FD6930"/>
<path d="M117.006 129.178C115.052 133.375 111.559 136.688 107.266 138.369L105.616 141.518L109.056 150.455L111.979 151.483C119.604 148.569 125.826 142.757 129.338 135.366L117.006 129.178Z" fill="#E94444"/>
<path d="M107.266 138.369C105.269 139.153 103.097 139.583 100.826 139.583C98.3948 139.583 96.0791 139.092 93.9666 138.197L90.3572 138.594L86.0639 147.474L88.4534 150.986C92.2545 152.627 96.4365 153.535 100.826 153.535C104.751 153.535 108.509 152.81 111.979 151.483L107.266 138.369Z" fill="#A274BF"/>
<path d="M84.4576 128.761L81.6336 126.689L72.4176 129.929L71.7682 134.154C74.985 141.713 80.9819 147.764 88.4534 150.986L93.9667 138.197C89.7269 136.413 86.3089 133.015 84.4576 128.761Z" fill="#26A6FE"/>
<path d="M125.193 76.1776C117.959 72.1608 109.655 69.8745 100.826 69.8745C92.8923 69.8745 85.3844 71.7179 78.6962 75.0052L86.9382 92.5922L95.1265 96.3177L120.891 100.743L128.387 84.6038L125.193 76.1776Z" fill="#FEE97D"/>
<path d="M156.986 101.766C157.241 102.511 156.834 103.321 156.094 103.555L149.159 105.75L136.025 109.908C133.088 100.65 126.715 92.9574 118.423 88.3805L125.097 76.1781L128.628 69.7208C129 69.0368 129.857 68.7958 130.522 69.1888C142.799 76.4082 152.295 87.9527 156.986 101.766Z" fill="#FEC165"/>
<path d="M82.9402 121.437C82.9402 119.273 83.3126 117.197 83.9996 115.273L83.8417 107.71H76.1722L71.1476 110.29C69.8806 113.762 69.1871 117.518 69.1871 121.437C69.1871 125.956 70.1074 130.255 71.7682 134.154L84.4576 128.761C83.4817 126.522 82.9402 124.045 82.9402 121.437Z" fill="#2ABCC8"/>
<path d="M93.3584 94.6971L86.938 92.5923C79.6762 96.1922 73.9767 102.534 71.1474 110.29L83.9994 115.273C85.5661 110.874 88.7593 107.266 92.845 105.196V105.194L95.7891 101.831L93.3584 94.6971Z" fill="#00F2A6"/>
<path d="M115.885 93.2003L115.882 93.1999C111.405 90.7379 106.277 89.3398 100.826 89.3398C95.8437 89.3398 91.1309 90.508 86.9382 92.5924L92.8452 105.196C95.2465 103.981 97.9582 103.292 100.826 103.292C103.857 103.292 106.71 104.057 109.209 105.407L113.711 105.632L118.115 99.6743L115.885 93.2003Z" fill="#FEDF30"/>
<path d="M136.025 109.908L130.837 111.549L117.8 115.707C116.343 111.259 113.159 107.536 109.135 105.367L115.789 93.2003L118.423 88.3801C126.715 92.9571 133.088 100.65 136.025 109.908Z" fill="#FDB441"/>
<defs>
<filter id="filter0_d" x="0" y="0" width="198" height="242" filterUnits="userSpaceOnUse" color-interpolation-filters="sRGB">
<feFlood flood-opacity="0" result="BackgroundImageFix"/>
<feColorMatrix in="SourceAlpha" type="matrix" values="0 0 0 0 0 0 0 0 0 0 0 0 0 0 0 0 0 0 127 0"/>
<feOffset dx="-5"/>
<feGaussianBlur stdDeviation="9.5"/>
<feColorMatrix type="matrix" values="0 0 0 0 0 0 0 0 0 0 0 0 0 0 0 0 0 0 0.1 0"/>
<feBlend mode="normal" in2="BackgroundImageFix" result="effect1_dropShadow"/>
<feBlend mode="normal" in="SourceGraphic" in2="effect1_dropShadow" result="shape"/>
</filter>
</defs>
</svg>
