<svg width="195" height="242" viewBox="0 0 195 242" fill="none" xmlns="http://www.w3.org/2000/svg">
<g filter="url(#filter0_d)">
<path d="M24 35C24 26.1634 31.1634 19 40 19H181V223H40C31.1634 223 24 215.837 24 207V35Z" fill="#96FFD9"/>
</g>
<path d="M162 120L181.5 95.7513V144.249L162 120Z" fill="white"/>
<path d="M147.373 116.222H124.383V142.667H153.121C154.178 142.667 155.036 141.821 155.036 140.778V123.778C155.036 119.605 151.605 116.222 147.373 116.222Z" fill="#FFDC64"/>
<path d="M124.383 120H147.373C149.489 120 151.205 121.691 151.205 123.777V142.666H124.383V120Z" fill="#FFC850"/>
<path d="M151.052 142.667C150.12 136.261 144.548 131.333 137.793 131.333C131.039 131.333 125.467 136.261 124.535 142.667H151.052Z" fill="#E1A546"/>
<path d="M139.709 93.5554H124.382V101.111H144.499C145.028 101.111 145.457 100.688 145.457 100.167V99.2221C145.457 96.0925 142.884 93.5554 139.709 93.5554Z" fill="#FFDC64"/>
<path d="M122.467 86H53.4953C52.4374 86 51.5794 86.8458 51.5794 87.8889V125.667H47.7477C46.6886 125.667 45.8318 126.512 45.8318 127.555C45.8318 128.599 46.6886 129.444 47.7477 129.444H59.2429C60.302 129.444 61.1588 130.29 61.1588 131.333C61.1588 132.376 60.302 133.222 59.2429 133.222H51.5794V140.778C51.5794 141.821 52.4374 142.667 53.4953 142.667H124.383V87.8889C124.383 86.8456 123.525 86 122.467 86Z" fill="#B4E66E"/>
<path d="M81.4084 133.222C79.4022 132.041 77.0771 131.333 74.5697 131.333C72.0624 131.333 69.7372 132.041 67.731 133.222H43.9159C42.8568 133.222 42 134.068 42 135.111C42 136.154 42.8568 137 43.9159 137H51.5794V140.778C51.5794 141.821 52.4373 142.667 53.4953 142.667H124.383V133.222H81.4084Z" fill="#A0D755"/>
<path d="M137.794 154C143.084 154 147.373 149.771 147.373 144.555C147.373 139.339 143.084 135.111 137.794 135.111C132.503 135.111 128.214 139.339 128.214 144.555C128.214 149.771 132.503 154 137.794 154Z" fill="#5B5D6E"/>
<path d="M74.5697 154C79.8603 154 84.1491 149.771 84.1491 144.555C84.1491 139.339 79.8603 135.111 74.5697 135.111C69.2792 135.111 64.9903 139.339 64.9903 144.555C64.9903 149.771 69.2792 154 74.5697 154Z" fill="#5B5D6E"/>
<path d="M147.373 116.222L143.541 101.111H124.383V116.222H147.373Z" fill="#B4E6FF"/>
<path d="M74.5698 150.222C77.7441 150.222 80.3174 147.685 80.3174 144.555C80.3174 141.426 77.7441 138.889 74.5698 138.889C71.3954 138.889 68.8221 141.426 68.8221 144.555C68.8221 147.685 71.3954 150.222 74.5698 150.222Z" fill="#C7CFE2"/>
<path d="M74.5698 146.444C75.6279 146.444 76.4856 145.599 76.4856 144.555C76.4856 143.512 75.6279 142.667 74.5698 142.667C73.5116 142.667 72.6539 143.512 72.6539 144.555C72.6539 145.599 73.5116 146.444 74.5698 146.444Z" fill="#7F8499"/>
<path d="M137.793 150.222C140.968 150.222 143.541 147.685 143.541 144.555C143.541 141.426 140.968 138.889 137.793 138.889C134.619 138.889 132.046 141.426 132.046 144.555C132.046 147.685 134.619 150.222 137.793 150.222Z" fill="#C7CFE2"/>
<path d="M137.794 146.444C138.852 146.444 139.709 145.599 139.709 144.555C139.709 143.512 138.852 142.667 137.794 142.667C136.735 142.667 135.878 143.512 135.878 144.555C135.878 145.599 136.735 146.444 137.794 146.444Z" fill="#7F8499"/>
<path d="M132.046 104.889H144.499L143.541 101.111H124.382V116.222H130.13V106.777C130.13 105.734 130.988 104.889 132.046 104.889Z" fill="#9BD6FF"/>
<path d="M124.383 97.3329H139.71C140.768 97.3329 141.625 98.1787 141.625 99.2218V101.111H124.383V97.3329Z" fill="#FFC850"/>
<path d="M155.036 123.778H149.289V131.333H155.036V123.778Z" fill="#F1F4FB"/>
<path d="M145.457 123.778V127.556C145.457 129.642 147.173 131.333 149.289 131.333H151.205V123.778H145.457Z" fill="#FF8C66"/>
<path d="M86.065 122.361C85.4513 122.361 84.8395 122.13 84.3719 121.669L72.8766 110.336C71.9412 109.413 71.9412 107.919 72.8766 106.997C73.8121 106.074 75.3275 106.075 76.2631 106.997L86.0653 116.661L103.531 99.4414C104.466 98.5192 105.982 98.5192 106.917 99.4414C107.853 100.364 107.853 101.858 106.917 102.78L87.7584 121.669C87.2906 122.13 86.6788 122.361 86.065 122.361Z" fill="white"/>
<defs>
<filter id="filter0_d" x="0" y="0" width="195" height="242" filterUnits="userSpaceOnUse" color-interpolation-filters="sRGB">
<feFlood flood-opacity="0" result="BackgroundImageFix"/>
<feColorMatrix in="SourceAlpha" type="matrix" values="0 0 0 0 0 0 0 0 0 0 0 0 0 0 0 0 0 0 127 0"/>
<feOffset dx="-5"/>
<feGaussianBlur stdDeviation="9.5"/>
<feColorMatrix type="matrix" values="0 0 0 0 0 0 0 0 0 0 0 0 0 0 0 0 0 0 0.1 0"/>
<feBlend mode="normal" in2="BackgroundImageFix" result="effect1_dropShadow"/>
<feBlend mode="normal" in="SourceGraphic" in2="effect1_dropShadow" result="shape"/>
</filter>
</defs>
</svg>
