<svg width="198" height="242" viewBox="0 0 198 242" fill="none" xmlns="http://www.w3.org/2000/svg">
<g filter="url(#filter0_d)">
<path d="M24 35C24 26.1634 31.1634 19 40 19H184V223H40C31.1634 223 24 215.837 24 207V35Z" fill="#FF84A1"/>
</g>
<path d="M165 120L184.5 95.7513V144.249L165 120Z" fill="white"/>
<path d="M133.383 61H69.9167C68.8219 61 67.9333 61.8885 67.9333 62.9833V153.757L135.367 154.217V62.9833C135.367 61.8885 134.478 61 133.383 61Z" fill="#522813"/>
<path d="M131.517 63.741H71.783C70.7517 63.741 69.9167 64.5779 69.9167 65.6093V151.043L133.383 151.476V65.6093C133.383 64.5779 132.548 63.741 131.517 63.741Z" fill="#612F16"/>
<path d="M60 122.483L67.9333 126.946V116.533L60 122.483Z" fill="#606060"/>
<path d="M145.283 124.467L135.367 116.533V127.406L145.283 124.467Z" fill="#606060"/>
<path d="M67.9333 168.1V178.017C67.9333 179.111 68.8219 180 69.9167 180H133.383C134.478 180 135.367 179.111 135.367 178.017V168.1H67.9333Z" fill="#612F16"/>
<path d="M127.433 144.3L115.533 156.2L91.7333 140.333L73.8833 158.183L67.9333 142.884V168.1H135.367V145.433L127.433 144.3Z" fill="#F35142"/>
<path d="M106.41 68.9332H96.89C95.5751 68.9332 94.51 69.9983 94.51 71.3132V90.3532C94.51 91.6682 95.5751 92.7332 96.89 92.7332H106.41C107.725 92.7332 108.79 91.6682 108.79 90.3532V71.3132C108.79 69.9983 107.725 68.9332 106.41 68.9332Z" fill="#522813"/>
<path d="M86.5767 68.9332H77.0567C75.7417 68.9332 74.6767 69.9983 74.6767 71.3132V90.3532C74.6767 91.6682 75.7417 92.7332 77.0567 92.7332H86.5767C87.8916 92.7332 88.9567 91.6682 88.9567 90.3532V71.3132C88.9567 69.9983 87.8916 68.9332 86.5767 68.9332Z" fill="#522813"/>
<path d="M126.243 68.9332H116.723C115.408 68.9332 114.343 69.9983 114.343 71.3132V90.3532C114.343 91.6682 115.408 92.7332 116.723 92.7332H126.243C127.558 92.7332 128.623 91.6682 128.623 90.3532V71.3132C128.623 69.9983 127.558 68.9332 126.243 68.9332Z" fill="#522813"/>
<path d="M125.45 70.9166H117.517C116.422 70.9166 115.533 71.8052 115.533 72.9V88.7666C115.533 89.8614 116.422 90.75 117.517 90.75H125.45C126.545 90.75 127.433 89.8614 127.433 88.7666V72.9C127.433 71.8052 126.545 70.9166 125.45 70.9166Z" fill="#803916"/>
<path d="M85.7833 70.9166H77.85C76.7552 70.9166 75.8667 71.8052 75.8667 72.9V88.7666C75.8667 89.8614 76.7552 90.75 77.85 90.75H85.7833C86.8781 90.75 87.7667 89.8614 87.7667 88.7666V72.9C87.7667 71.8052 86.8781 70.9166 85.7833 70.9166Z" fill="#803916"/>
<path d="M105.617 70.9166H97.6833C96.5885 70.9166 95.7 71.8052 95.7 72.9V88.7666C95.7 89.8614 96.5885 90.75 97.6833 90.75H105.617C106.711 90.75 107.6 89.8614 107.6 88.7666V72.9C107.6 71.8052 106.711 70.9166 105.617 70.9166Z" fill="#803916"/>
<path d="M106.41 96.7001H96.89C95.5751 96.7001 94.51 97.7651 94.51 99.0801V118.12C94.51 119.435 95.5751 120.5 96.89 120.5H106.41C107.725 120.5 108.79 119.435 108.79 118.12V99.0801C108.79 97.7651 107.725 96.7001 106.41 96.7001Z" fill="#522813"/>
<path d="M86.5767 96.7001H77.0567C75.7417 96.7001 74.6767 97.7651 74.6767 99.0801V118.12C74.6767 119.435 75.7417 120.5 77.0567 120.5H86.5767C87.8916 120.5 88.9567 119.435 88.9567 118.12V99.0801C88.9567 97.7651 87.8916 96.7001 86.5767 96.7001Z" fill="#522813"/>
<path d="M126.243 96.7001H116.723C115.408 96.7001 114.343 97.7651 114.343 99.0801V118.12C114.343 119.435 115.408 120.5 116.723 120.5H126.243C127.558 120.5 128.623 119.435 128.623 118.12V99.0801C128.623 97.7651 127.558 96.7001 126.243 96.7001Z" fill="#522813"/>
<path d="M105.617 98.6832H97.6833C96.5885 98.6832 95.7 99.5718 95.7 100.667V116.533C95.7 117.628 96.5885 118.517 97.6833 118.517H105.617C106.711 118.517 107.6 117.628 107.6 116.533V100.667C107.6 99.5718 106.711 98.6832 105.617 98.6832Z" fill="#803916"/>
<path d="M125.45 98.6832H117.517C116.422 98.6832 115.533 99.5718 115.533 100.667V116.533C115.533 117.628 116.422 118.517 117.517 118.517H125.45C126.545 118.517 127.433 117.628 127.433 116.533V100.667C127.433 99.5718 126.545 98.6832 125.45 98.6832Z" fill="#803916"/>
<path d="M85.7833 98.6832H77.85C76.7552 98.6832 75.8667 99.5718 75.8667 100.667V116.533C75.8667 117.628 76.7552 118.517 77.85 118.517H85.7833C86.8781 118.517 87.7667 117.628 87.7667 116.533V100.667C87.7667 99.5718 86.8781 98.6832 85.7833 98.6832Z" fill="#803916"/>
<path d="M106.41 124.467H96.89C95.5751 124.467 94.51 125.532 94.51 126.847V145.887C94.51 147.202 95.5751 148.267 96.89 148.267H106.41C107.725 148.267 108.79 147.202 108.79 145.887V126.847C108.79 125.532 107.725 124.467 106.41 124.467Z" fill="#522813"/>
<path d="M86.5767 124.467H77.0567C75.7417 124.467 74.6767 125.532 74.6767 126.847V145.887C74.6767 147.202 75.7417 148.267 77.0567 148.267H86.5767C87.8916 148.267 88.9567 147.202 88.9567 145.887V126.847C88.9567 125.532 87.8916 124.467 86.5767 124.467Z" fill="#522813"/>
<path d="M126.243 124.467H116.723C115.408 124.467 114.343 125.532 114.343 126.847V145.887C114.343 147.202 115.408 148.267 116.723 148.267H126.243C127.558 148.267 128.623 147.202 128.623 145.887V126.847C128.623 125.532 127.558 124.467 126.243 124.467Z" fill="#522813"/>
<path d="M75.8667 128.433V131.408L87.7667 138.102V128.433C87.7667 127.339 86.8781 126.45 85.7833 126.45H77.85C76.7552 126.45 75.8667 127.339 75.8667 128.433Z" fill="#803916"/>
<path d="M105.617 126.45H97.6833C96.5885 126.45 95.7 127.339 95.7 128.433V139.157L107.6 135.631V128.433C107.6 127.339 106.711 126.45 105.617 126.45Z" fill="#803916"/>
<path d="M125.45 126.45H117.517C116.422 126.45 115.533 127.339 115.533 128.433V133.281L127.433 129.754V128.433C127.433 127.339 126.545 126.45 125.45 126.45Z" fill="#803916"/>
<path d="M119.5 162.15L127.433 152.233L135.367 153.675V145.433L127.433 144.3L115.533 156.2L91.7333 140.333L73.8833 158.183L67.9333 142.884V168.1L91.7333 148.267L119.5 162.15Z" fill="#C94337"/>
<path d="M87.7667 138.102L75.8667 131.408L60 122.483L67.9333 142.884L73.8833 158.183L91.7333 140.333L87.7667 138.102Z" fill="#BFBFBF"/>
<path d="M135.367 127.406L127.433 129.756L115.533 133.281L107.6 135.633L95.7 139.157L91.7333 140.333L115.533 156.2L127.433 144.3L135.367 145.432L141.317 146.283L145.283 124.467L135.367 127.406Z" fill="#BFBFBF"/>
<defs>
<filter id="filter0_d" x="0" y="0" width="198" height="242" filterUnits="userSpaceOnUse" color-interpolation-filters="sRGB">
<feFlood flood-opacity="0" result="BackgroundImageFix"/>
<feColorMatrix in="SourceAlpha" type="matrix" values="0 0 0 0 0 0 0 0 0 0 0 0 0 0 0 0 0 0 127 0"/>
<feOffset dx="-5"/>
<feGaussianBlur stdDeviation="9.5"/>
<feColorMatrix type="matrix" values="0 0 0 0 0 0 0 0 0 0 0 0 0 0 0 0 0 0 0.1 0"/>
<feBlend mode="normal" in2="BackgroundImageFix" result="effect1_dropShadow"/>
<feBlend mode="normal" in="SourceGraphic" in2="effect1_dropShadow" result="shape"/>
</filter>
</defs>
</svg>
